<mxfile host="app.diagrams.net" modified="2023-05-26T07:15:27.854Z" agent="Mozilla/5.0 (Windows NT 10.0; Win64; x64) AppleWebKit/537.36 (KHTML, like Gecko) Chrome/113.0.0.0 Safari/537.36" version="21.3.4" etag="1h59xN2QfhMOBKyoTPXZ" type="github">
  <diagram name="Sayfa -1" id="2H-E5GOZik0M6oCHQwSY">
    <mxGraphModel>
      <root>
        <mxCell id="0" />
        <mxCell id="1" parent="0" />
      </root>
    </mxGraphModel>
  </diagram>
</mxfile>
